grf
version=1
nRows=9
nColumns=46
inDegrees=yes
endheader
time	ground_force_1_vx	ground_force_1_vy	ground_force_1_vz	ground_force_1_px	ground_force_1_py	ground_force_1_pz	ground_moment_1_mx	ground_moment_1_my	ground_moment_1_mz	ground_force_2_vx	ground_force_2_vy	ground_force_2_vz	ground_force_2_px	ground_force_2_py	ground_force_2_pz	ground_moment_2_mx	ground_moment_2_my	ground_moment_2_mz	ground_force_3_vx	ground_force_3_vy	ground_force_3_vz	ground_force_3_px	ground_force_3_py	ground_force_3_pz	ground_moment_3_mx	ground_moment_3_my	ground_moment_3_mz	ground_force_4_vx	ground_force_4_vy	ground_force_4_vz	ground_force_4_px	ground_force_4_py	ground_force_4_pz	ground_moment_4_mx	ground_moment_4_my	ground_moment_4_mz	ground_force_5_vx	ground_force_5_vy	ground_force_5_vz	ground_force_5_px	ground_force_5_py	ground_force_5_pz	ground_moment_5_mx	ground_moment_5_my	ground_moment_5_mz
3.817500	0.000000	0.000000	0.000000	0.000000	0.000000	0.000000	0.000000	0.000000	0.000000	0.000000	0.000000	0.000000	0.000000	0.000000	0.000000	0.000000	0.000000	0.000000	0.000000	0.000000	0.000000	0.000000	0.000000	0.000000	0.000000	0.000000	0.000000	4.244861	446.224867	-67.716344	0.181954	0.000000	-1.074666	0.000000	4.807321	0.000000	-3.645705	443.683120	66.738307	0.198901	0.000000	-1.396383	-0.000000	-3.741062	-0.000000
3.818000	0.000000	0.000000	0.000000	0.000000	0.000000	0.000000	0.000000	0.000000	0.000000	0.000000	0.000000	0.000000	0.000000	0.000000	0.000000	0.000000	0.000000	0.000000	0.000000	0.000000	0.000000	0.000000	0.000000	0.000000	0.000000	0.000000	0.000000	4.213224	446.205783	-67.711500	0.181960	0.000000	-1.074667	0.000000	4.807112	0.000000	-3.660298	443.705131	66.725646	0.198896	0.000000	-1.396381	-0.000000	-3.740599	-0.000000
3.818500	0.000000	0.000000	0.000000	0.000000	0.000000	0.000000	0.000000	0.000000	0.000000	0.000000	0.000000	0.000000	0.000000	0.000000	0.000000	0.000000	0.000000	0.000000	0.000000	0.000000	0.000000	0.000000	0.000000	0.000000	0.000000	0.000000	0.000000	4.181891	446.187496	-67.706553	0.181966	0.000000	-1.074667	0.000000	4.806887	0.000000	-3.674529	443.726953	66.712782	0.198891	0.000000	-1.396379	-0.000000	-3.740192	-0.000000
3.819000	0.000000	0.000000	0.000000	0.000000	0.000000	0.000000	0.000000	0.000000	0.000000	0.000000	0.000000	0.000000	0.000000	0.000000	0.000000	0.000000	0.000000	0.000000	0.000000	0.000000	0.000000	0.000000	0.000000	0.000000	0.000000	0.000000	0.000000	4.150881	446.169953	-67.701488	0.181973	0.000000	-1.074667	0.000000	4.806645	0.000000	-3.688375	443.748572	66.699758	0.198887	0.000000	-1.396377	-0.000000	-3.739849	-0.000000
3.819500	0.000000	0.000000	0.000000	0.000000	0.000000	0.000000	0.000000	0.000000	0.000000	0.000000	0.000000	0.000000	0.000000	0.000000	0.000000	0.000000	0.000000	0.000000	0.000000	0.000000	0.000000	0.000000	0.000000	0.000000	0.000000	0.000000	0.000000	4.120216	446.153109	-67.696289	0.181980	0.000000	-1.074668	0.000000	4.806383	0.000000	-3.701817	443.769971	66.686625	0.198882	0.000000	-1.396375	0.000000	-3.739578	-0.000000
3.820000	0.000000	0.000000	0.000000	0.000000	0.000000	0.000000	0.000000	0.000000	0.000000	0.000000	0.000000	0.000000	0.000000	0.000000	0.000000	0.000000	0.000000	0.000000	0.000000	0.000000	0.000000	0.000000	0.000000	0.000000	0.000000	0.000000	0.000000	4.089921	446.136930	-67.690936	0.181987	0.000000	-1.074669	0.000000	4.806102	0.000000	-3.714831	443.791131	66.673437	0.198877	0.000000	-1.396373	0.000000	-3.739387	-0.000000
3.820500	0.000000	0.000000	0.000000	0.000000	0.000000	0.000000	0.000000	0.000000	0.000000	0.000000	0.000000	0.000000	0.000000	0.000000	0.000000	0.000000	0.000000	0.000000	0.000000	0.000000	0.000000	0.000000	0.000000	0.000000	0.000000	0.000000	0.000000	4.060022	446.121382	-67.685410	0.181994	0.000000	-1.074671	0.000000	4.805801	0.000000	-3.727394	443.812030	66.660251	0.198872	0.000000	-1.396370	0.000000	-3.739284	-0.000000
3.821000	0.000000	0.000000	0.000000	0.000000	0.000000	0.000000	0.000000	0.000000	0.000000	0.000000	0.000000	0.000000	0.000000	0.000000	0.000000	0.000000	0.000000	0.000000	0.000000	0.000000	0.000000	0.000000	0.000000	0.000000	0.000000	0.000000	0.000000	4.030545	446.106432	-67.679689	0.182000	0.000000	-1.074673	0.000000	4.805480	0.000000	-3.739484	443.832650	66.647122	0.198867	0.000000	-1.396367	0.000000	-3.739275	-0.000000
3.821500	0.000000	0.000000	0.000000	0.000000	0.000000	0.000000	0.000000	0.000000	0.000000	0.000000	0.000000	0.000000	0.000000	0.000000	0.000000	0.000000	0.000000	0.000000	0.000000	0.000000	0.000000	0.000000	0.000000	0.000000	0.000000	0.000000	0.000000	4.001511	446.092051	-67.673751	0.182007	0.000000	-1.074675	0.000000	4.805139	0.000000	-3.751080	443.852979	66.634102	0.198862	0.000000	-1.396364	0.000000	-3.739364	-0.000000
